<svg id="svgQrWrapper" viewBox="0 0 300 300" xmlns="http://www.w3.org/2000/svg" xmlns:xlink="http://www.w3.org/1999/xlink" width="300" height="300" style="width: 100%; height: 100%; background-color: rgb(255, 255, 255);"><svg><g transform="translate(9, 9)scale(0.95)" fill="none"><svg width="300" height="300"><style>.background-color{ fill: #fff; }.dot-color{ fill: #000000; }.corners-square-color-0-0{ fill: #000000; }.corners-dot-color-0-0{ fill: #000000; }.corners-square-color-1-0{ fill: #000000; }.corners-dot-color-1-0{ fill: #000000; }.corners-square-color-0-1{ fill: #000000; }.corners-dot-color-0-1{ fill: #000000; }</style><defs/><g class="dot-color"><path d="M 2.2857142857142856 74.28571428571429v 6.428571428571429h 6.428571428571429v -6.428571428571429z" transform="rotate(0,5.5,77.5)"/><path d="M 2.2857142857142856 119.28571428571429v 6.428571428571429h 6.428571428571429v -6.428571428571429z" transform="rotate(0,5.5,122.5)"/><path d="M 2.2857142857142856 137.28571428571428v 6.428571428571429h 6.428571428571429v -6.428571428571429z" transform="rotate(0,5.5,140.5)"/><path d="M 2.2857142857142856 164.28571428571428v 6.428571428571429h 6.428571428571429v -6.428571428571429z" transform="rotate(0,5.5,167.5)"/><path d="M 2.2857142857142856 200.28571428571428v 6.428571428571429h 6.428571428571429v -6.428571428571429z" transform="rotate(0,5.5,203.5)"/><path d="M 2.2857142857142856 209.28571428571428v 6.428571428571429h 6.428571428571429v -6.428571428571429z" transform="rotate(0,5.5,212.5)"/><path d="M 2.2857142857142856 218.28571428571428v 6.428571428571429h 6.428571428571429v -6.428571428571429z" transform="rotate(0,5.5,221.5)"/><path d="M 11.285714285714286 83.28571428571429v 6.428571428571429h 6.428571428571429v -6.428571428571429z" transform="rotate(0,14.5,86.5)"/><path d="M 11.285714285714286 92.28571428571429v 6.428571428571429h 6.428571428571429v -6.428571428571429z" transform="rotate(0,14.5,95.5)"/><path d="M 11.285714285714286 101.28571428571429v 6.428571428571429h 6.428571428571429v -6.428571428571429z" transform="rotate(0,14.5,104.5)"/><path d="M 11.285714285714286 110.28571428571429v 6.428571428571429h 6.428571428571429v -6.428571428571429z" transform="rotate(0,14.5,113.5)"/><path d="M 11.285714285714286 119.28571428571429v 6.428571428571429h 6.428571428571429v -6.428571428571429z" transform="rotate(0,14.5,122.5)"/><path d="M 11.285714285714286 155.28571428571428v 6.428571428571429h 6.428571428571429v -6.428571428571429z" transform="rotate(0,14.5,158.5)"/><path d="M 11.285714285714286 164.28571428571428v 6.428571428571429h 6.428571428571429v -6.428571428571429z" transform="rotate(0,14.5,167.5)"/><path d="M 11.285714285714286 191.28571428571428v 6.428571428571429h 6.428571428571429v -6.428571428571429z" transform="rotate(0,14.5,194.5)"/><path d="M 11.285714285714286 209.28571428571428v 6.428571428571429h 6.428571428571429v -6.428571428571429z" transform="rotate(0,14.5,212.5)"/><path d="M 20.285714285714285 101.28571428571429v 6.428571428571429h 6.428571428571429v -6.428571428571429z" transform="rotate(0,23.5,104.5)"/><path d="M 20.285714285714285 128.28571428571428v 6.428571428571429h 6.428571428571429v -6.428571428571429z" transform="rotate(0,23.5,131.5)"/><path d="M 20.285714285714285 164.28571428571428v 6.428571428571429h 6.428571428571429v -6.428571428571429z" transform="rotate(0,23.5,167.5)"/><path d="M 20.285714285714285 182.28571428571428v 6.428571428571429h 6.428571428571429v -6.428571428571429z" transform="rotate(0,23.5,185.5)"/><path d="M 20.285714285714285 209.28571428571428v 6.428571428571429h 6.428571428571429v -6.428571428571429z" transform="rotate(0,23.5,212.5)"/><path d="M 20.285714285714285 218.28571428571428v 6.428571428571429h 6.428571428571429v -6.428571428571429z" transform="rotate(0,23.5,221.5)"/><path d="M 29.285714285714285 74.28571428571429v 6.428571428571429h 6.428571428571429v -6.428571428571429z" transform="rotate(0,32.5,77.5)"/><path d="M 29.285714285714285 83.28571428571429v 6.428571428571429h 6.428571428571429v -6.428571428571429z" transform="rotate(0,32.5,86.5)"/><path d="M 29.285714285714285 92.28571428571429v 6.428571428571429h 6.428571428571429v -6.428571428571429z" transform="rotate(0,32.5,95.5)"/><path d="M 29.285714285714285 101.28571428571429v 6.428571428571429h 6.428571428571429v -6.428571428571429z" transform="rotate(0,32.5,104.5)"/><path d="M 29.285714285714285 110.28571428571429v 6.428571428571429h 6.428571428571429v -6.428571428571429z" transform="rotate(0,32.5,113.5)"/><path d="M 29.285714285714285 119.28571428571429v 6.428571428571429h 6.428571428571429v -6.428571428571429z" transform="rotate(0,32.5,122.5)"/><path d="M 29.285714285714285 128.28571428571428v 6.428571428571429h 6.428571428571429v -6.428571428571429z" transform="rotate(0,32.5,131.5)"/><path d="M 29.285714285714285 137.28571428571428v 6.428571428571429h 6.428571428571429v -6.428571428571429z" transform="rotate(0,32.5,140.5)"/><path d="M 29.285714285714285 146.28571428571428v 6.428571428571429h 6.428571428571429v -6.428571428571429z" transform="rotate(0,32.5,149.5)"/><path d="M 29.285714285714285 164.28571428571428v 6.428571428571429h 6.428571428571429v -6.428571428571429z" transform="rotate(0,32.5,167.5)"/><path d="M 29.285714285714285 200.28571428571428v 6.428571428571429h 6.428571428571429v -6.428571428571429z" transform="rotate(0,32.5,203.5)"/><path d="M 38.285714285714285 119.28571428571429v 6.428571428571429h 6.428571428571429v -6.428571428571429z" transform="rotate(0,41.5,122.5)"/><path d="M 38.285714285714285 146.28571428571428v 6.428571428571429h 6.428571428571429v -6.428571428571429z" transform="rotate(0,41.5,149.5)"/><path d="M 38.285714285714285 164.28571428571428v 6.428571428571429h 6.428571428571429v -6.428571428571429z" transform="rotate(0,41.5,167.5)"/><path d="M 47.285714285714285 92.28571428571429v 6.428571428571429h 6.428571428571429v -6.428571428571429z" transform="rotate(0,50.5,95.5)"/><path d="M 47.285714285714285 101.28571428571429v 6.428571428571429h 6.428571428571429v -6.428571428571429z" transform="rotate(0,50.5,104.5)"/><path d="M 47.285714285714285 119.28571428571429v 6.428571428571429h 6.428571428571429v -6.428571428571429z" transform="rotate(0,50.5,122.5)"/><path d="M 47.285714285714285 137.28571428571428v 6.428571428571429h 6.428571428571429v -6.428571428571429z" transform="rotate(0,50.5,140.5)"/><path d="M 47.285714285714285 146.28571428571428v 6.428571428571429h 6.428571428571429v -6.428571428571429z" transform="rotate(0,50.5,149.5)"/><path d="M 47.285714285714285 155.28571428571428v 6.428571428571429h 6.428571428571429v -6.428571428571429z" transform="rotate(0,50.5,158.5)"/><path d="M 47.285714285714285 164.28571428571428v 6.428571428571429h 6.428571428571429v -6.428571428571429z" transform="rotate(0,50.5,167.5)"/><path d="M 47.285714285714285 173.28571428571428v 6.428571428571429h 6.428571428571429v -6.428571428571429z" transform="rotate(0,50.5,176.5)"/><path d="M 47.285714285714285 200.28571428571428v 6.428571428571429h 6.428571428571429v -6.428571428571429z" transform="rotate(0,50.5,203.5)"/><path d="M 56.285714285714285 74.28571428571429v 6.428571428571429h 6.428571428571429v -6.428571428571429z" transform="rotate(0,59.5,77.5)"/><path d="M 56.285714285714285 92.28571428571429v 6.428571428571429h 6.428571428571429v -6.428571428571429z" transform="rotate(0,59.5,95.5)"/><path d="M 56.285714285714285 110.28571428571429v 6.428571428571429h 6.428571428571429v -6.428571428571429z" transform="rotate(0,59.5,113.5)"/><path d="M 56.285714285714285 128.28571428571428v 6.428571428571429h 6.428571428571429v -6.428571428571429z" transform="rotate(0,59.5,131.5)"/><path d="M 56.285714285714285 146.28571428571428v 6.428571428571429h 6.428571428571429v -6.428571428571429z" transform="rotate(0,59.5,149.5)"/><path d="M 56.285714285714285 164.28571428571428v 6.428571428571429h 6.428571428571429v -6.428571428571429z" transform="rotate(0,59.5,167.5)"/><path d="M 56.285714285714285 182.28571428571428v 6.428571428571429h 6.428571428571429v -6.428571428571429z" transform="rotate(0,59.5,185.5)"/><path d="M 56.285714285714285 200.28571428571428v 6.428571428571429h 6.428571428571429v -6.428571428571429z" transform="rotate(0,59.5,203.5)"/><path d="M 56.285714285714285 218.28571428571428v 6.428571428571429h 6.428571428571429v -6.428571428571429z" transform="rotate(0,59.5,221.5)"/><path d="M 65.28571428571429 101.28571428571429v 6.428571428571429h 6.428571428571429v -6.428571428571429z" transform="rotate(0,68.5,104.5)"/><path d="M 65.28571428571429 110.28571428571429v 6.428571428571429h 6.428571428571429v -6.428571428571429z" transform="rotate(0,68.5,113.5)"/><path d="M 65.28571428571429 119.28571428571429v 6.428571428571429h 6.428571428571429v -6.428571428571429z" transform="rotate(0,68.5,122.5)"/><path d="M 65.28571428571429 137.28571428571428v 6.428571428571429h 6.428571428571429v -6.428571428571429z" transform="rotate(0,68.5,140.5)"/><path d="M 65.28571428571429 146.28571428571428v 6.428571428571429h 6.428571428571429v -6.428571428571429z" transform="rotate(0,68.5,149.5)"/><path d="M 65.28571428571429 164.28571428571428v 6.428571428571429h 6.428571428571429v -6.428571428571429z" transform="rotate(0,68.5,167.5)"/><path d="M 65.28571428571429 182.28571428571428v 6.428571428571429h 6.428571428571429v -6.428571428571429z" transform="rotate(0,68.5,185.5)"/><path d="M 65.28571428571429 191.28571428571428v 6.428571428571429h 6.428571428571429v -6.428571428571429z" transform="rotate(0,68.5,194.5)"/><path d="M 65.28571428571429 218.28571428571428v 6.428571428571429h 6.428571428571429v -6.428571428571429z" transform="rotate(0,68.5,221.5)"/><path d="M 74.28571428571429 20.285714285714285v 6.428571428571429h 6.428571428571429v -6.428571428571429z" transform="rotate(0,77.5,23.5)"/><path d="M 74.28571428571429 38.285714285714285v 6.428571428571429h 6.428571428571429v -6.428571428571429z" transform="rotate(0,77.5,41.5)"/><path d="M 74.28571428571429 47.285714285714285v 6.428571428571429h 6.428571428571429v -6.428571428571429z" transform="rotate(0,77.5,50.5)"/><path d="M 74.28571428571429 56.285714285714285v 6.428571428571429h 6.428571428571429v -6.428571428571429z" transform="rotate(0,77.5,59.5)"/><path d="M 74.28571428571429 74.28571428571429v 6.428571428571429h 6.428571428571429v -6.428571428571429z" transform="rotate(0,77.5,77.5)"/><path d="M 74.28571428571429 83.28571428571429v 6.428571428571429h 6.428571428571429v -6.428571428571429z" transform="rotate(0,77.5,86.5)"/><path d="M 74.28571428571429 101.28571428571429v 6.428571428571429h 6.428571428571429v -6.428571428571429z" transform="rotate(0,77.5,104.5)"/><path d="M 74.28571428571429 155.28571428571428v 6.428571428571429h 6.428571428571429v -6.428571428571429z" transform="rotate(0,77.5,158.5)"/><path d="M 74.28571428571429 182.28571428571428v 6.428571428571429h 6.428571428571429v -6.428571428571429z" transform="rotate(0,77.5,185.5)"/><path d="M 74.28571428571429 191.28571428571428v 6.428571428571429h 6.428571428571429v -6.428571428571429z" transform="rotate(0,77.5,194.5)"/><path d="M 74.28571428571429 209.28571428571428v 6.428571428571429h 6.428571428571429v -6.428571428571429z" transform="rotate(0,77.5,212.5)"/><path d="M 74.28571428571429 218.28571428571428v 6.428571428571429h 6.428571428571429v -6.428571428571429z" transform="rotate(0,77.5,221.5)"/><path d="M 74.28571428571429 227.28571428571428v 6.428571428571429h 6.428571428571429v -6.428571428571429z" transform="rotate(0,77.5,230.5)"/><path d="M 74.28571428571429 263.2857142857143v 6.428571428571429h 6.428571428571429v -6.428571428571429z" transform="rotate(0,77.5,266.5)"/><path d="M 74.28571428571429 290.2857142857143v 6.428571428571429h 6.428571428571429v -6.428571428571429z" transform="rotate(0,77.5,293.5)"/><path d="M 83.28571428571429 20.285714285714285v 6.428571428571429h 6.428571428571429v -6.428571428571429z" transform="rotate(0,86.5,23.5)"/><path d="M 83.28571428571429 29.285714285714285v 6.428571428571429h 6.428571428571429v -6.428571428571429z" transform="rotate(0,86.5,32.5)"/><path d="M 83.28571428571429 65.28571428571429v 6.428571428571429h 6.428571428571429v -6.428571428571429z" transform="rotate(0,86.5,68.5)"/><path d="M 83.28571428571429 83.28571428571429v 6.428571428571429h 6.428571428571429v -6.428571428571429z" transform="rotate(0,86.5,86.5)"/><path d="M 83.28571428571429 128.28571428571428v 6.428571428571429h 6.428571428571429v -6.428571428571429z" transform="rotate(0,86.5,131.5)"/><path d="M 83.28571428571429 146.28571428571428v 6.428571428571429h 6.428571428571429v -6.428571428571429z" transform="rotate(0,86.5,149.5)"/><path d="M 83.28571428571429 164.28571428571428v 6.428571428571429h 6.428571428571429v -6.428571428571429z" transform="rotate(0,86.5,167.5)"/><path d="M 83.28571428571429 191.28571428571428v 6.428571428571429h 6.428571428571429v -6.428571428571429z" transform="rotate(0,86.5,194.5)"/><path d="M 83.28571428571429 200.28571428571428v 6.428571428571429h 6.428571428571429v -6.428571428571429z" transform="rotate(0,86.5,203.5)"/><path d="M 83.28571428571429 209.28571428571428v 6.428571428571429h 6.428571428571429v -6.428571428571429z" transform="rotate(0,86.5,212.5)"/><path d="M 83.28571428571429 218.28571428571428v 6.428571428571429h 6.428571428571429v -6.428571428571429z" transform="rotate(0,86.5,221.5)"/><path d="M 83.28571428571429 236.28571428571428v 6.428571428571429h 6.428571428571429v -6.428571428571429z" transform="rotate(0,86.5,239.5)"/><path d="M 83.28571428571429 263.2857142857143v 6.428571428571429h 6.428571428571429v -6.428571428571429z" transform="rotate(0,86.5,266.5)"/><path d="M 83.28571428571429 290.2857142857143v 6.428571428571429h 6.428571428571429v -6.428571428571429z" transform="rotate(0,86.5,293.5)"/><path d="M 92.28571428571429 11.285714285714286v 6.428571428571429h 6.428571428571429v -6.428571428571429z" transform="rotate(0,95.5,14.5)"/><path d="M 92.28571428571429 29.285714285714285v 6.428571428571429h 6.428571428571429v -6.428571428571429z" transform="rotate(0,95.5,32.5)"/><path d="M 92.28571428571429 38.285714285714285v 6.428571428571429h 6.428571428571429v -6.428571428571429z" transform="rotate(0,95.5,41.5)"/><path d="M 92.28571428571429 47.285714285714285v 6.428571428571429h 6.428571428571429v -6.428571428571429z" transform="rotate(0,95.5,50.5)"/><path d="M 92.28571428571429 56.285714285714285v 6.428571428571429h 6.428571428571429v -6.428571428571429z" transform="rotate(0,95.5,59.5)"/><path d="M 92.28571428571429 83.28571428571429v 6.428571428571429h 6.428571428571429v -6.428571428571429z" transform="rotate(0,95.5,86.5)"/><path d="M 92.28571428571429 92.28571428571429v 6.428571428571429h 6.428571428571429v -6.428571428571429z" transform="rotate(0,95.5,95.5)"/><path d="M 92.28571428571429 101.28571428571429v 6.428571428571429h 6.428571428571429v -6.428571428571429z" transform="rotate(0,95.5,104.5)"/><path d="M 92.28571428571429 128.28571428571428v 6.428571428571429h 6.428571428571429v -6.428571428571429z" transform="rotate(0,95.5,131.5)"/><path d="M 92.28571428571429 146.28571428571428v 6.428571428571429h 6.428571428571429v -6.428571428571429z" transform="rotate(0,95.5,149.5)"/><path d="M 92.28571428571429 155.28571428571428v 6.428571428571429h 6.428571428571429v -6.428571428571429z" transform="rotate(0,95.5,158.5)"/><path d="M 92.28571428571429 164.28571428571428v 6.428571428571429h 6.428571428571429v -6.428571428571429z" transform="rotate(0,95.5,167.5)"/><path d="M 92.28571428571429 182.28571428571428v 6.428571428571429h 6.428571428571429v -6.428571428571429z" transform="rotate(0,95.5,185.5)"/><path d="M 92.28571428571429 200.28571428571428v 6.428571428571429h 6.428571428571429v -6.428571428571429z" transform="rotate(0,95.5,203.5)"/><path d="M 92.28571428571429 227.28571428571428v 6.428571428571429h 6.428571428571429v -6.428571428571429z" transform="rotate(0,95.5,230.5)"/><path d="M 92.28571428571429 254.28571428571428v 6.428571428571429h 6.428571428571429v -6.428571428571429z" transform="rotate(0,95.5,257.5)"/><path d="M 92.28571428571429 263.2857142857143v 6.428571428571429h 6.428571428571429v -6.428571428571429z" transform="rotate(0,95.5,266.5)"/><path d="M 92.28571428571429 281.2857142857143v 6.428571428571429h 6.428571428571429v -6.428571428571429z" transform="rotate(0,95.5,284.5)"/><path d="M 92.28571428571429 290.2857142857143v 6.428571428571429h 6.428571428571429v -6.428571428571429z" transform="rotate(0,95.5,293.5)"/><path d="M 101.28571428571429 11.285714285714286v 6.428571428571429h 6.428571428571429v -6.428571428571429z" transform="rotate(0,104.5,14.5)"/><path d="M 101.28571428571429 20.285714285714285v 6.428571428571429h 6.428571428571429v -6.428571428571429z" transform="rotate(0,104.5,23.5)"/><path d="M 101.28571428571429 29.285714285714285v 6.428571428571429h 6.428571428571429v -6.428571428571429z" transform="rotate(0,104.5,32.5)"/><path d="M 101.28571428571429 47.285714285714285v 6.428571428571429h 6.428571428571429v -6.428571428571429z" transform="rotate(0,104.5,50.5)"/><path d="M 101.28571428571429 65.28571428571429v 6.428571428571429h 6.428571428571429v -6.428571428571429z" transform="rotate(0,104.5,68.5)"/><path d="M 101.28571428571429 83.28571428571429v 6.428571428571429h 6.428571428571429v -6.428571428571429z" transform="rotate(0,104.5,86.5)"/><path d="M 101.28571428571429 92.28571428571429v 6.428571428571429h 6.428571428571429v -6.428571428571429z" transform="rotate(0,104.5,95.5)"/><path d="M 101.28571428571429 110.28571428571429v 6.428571428571429h 6.428571428571429v -6.428571428571429z" transform="rotate(0,104.5,113.5)"/><path d="M 101.28571428571429 128.28571428571428v 6.428571428571429h 6.428571428571429v -6.428571428571429z" transform="rotate(0,104.5,131.5)"/><path d="M 101.28571428571429 137.28571428571428v 6.428571428571429h 6.428571428571429v -6.428571428571429z" transform="rotate(0,104.5,140.5)"/><path d="M 101.28571428571429 155.28571428571428v 6.428571428571429h 6.428571428571429v -6.428571428571429z" transform="rotate(0,104.5,158.5)"/><path d="M 101.28571428571429 164.28571428571428v 6.428571428571429h 6.428571428571429v -6.428571428571429z" transform="rotate(0,104.5,167.5)"/><path d="M 101.28571428571429 173.28571428571428v 6.428571428571429h 6.428571428571429v -6.428571428571429z" transform="rotate(0,104.5,176.5)"/><path d="M 101.28571428571429 182.28571428571428v 6.428571428571429h 6.428571428571429v -6.428571428571429z" transform="rotate(0,104.5,185.5)"/><path d="M 101.28571428571429 191.28571428571428v 6.428571428571429h 6.428571428571429v -6.428571428571429z" transform="rotate(0,104.5,194.5)"/><path d="M 101.28571428571429 200.28571428571428v 6.428571428571429h 6.428571428571429v -6.428571428571429z" transform="rotate(0,104.5,203.5)"/><path d="M 110.28571428571429 29.285714285714285v 6.428571428571429h 6.428571428571429v -6.428571428571429z" transform="rotate(0,113.5,32.5)"/><path d="M 110.28571428571429 56.285714285714285v 6.428571428571429h 6.428571428571429v -6.428571428571429z" transform="rotate(0,113.5,59.5)"/><path d="M 110.28571428571429 83.28571428571429v 6.428571428571429h 6.428571428571429v -6.428571428571429z" transform="rotate(0,113.5,86.5)"/><path d="M 110.28571428571429 200.28571428571428v 6.428571428571429h 6.428571428571429v -6.428571428571429z" transform="rotate(0,113.5,203.5)"/><path d="M 110.28571428571429 209.28571428571428v 6.428571428571429h 6.428571428571429v -6.428571428571429z" transform="rotate(0,113.5,212.5)"/><path d="M 110.28571428571429 227.28571428571428v 6.428571428571429h 6.428571428571429v -6.428571428571429z" transform="rotate(0,113.5,230.5)"/><path d="M 110.28571428571429 236.28571428571428v 6.428571428571429h 6.428571428571429v -6.428571428571429z" transform="rotate(0,113.5,239.5)"/><path d="M 110.28571428571429 254.28571428571428v 6.428571428571429h 6.428571428571429v -6.428571428571429z" transform="rotate(0,113.5,257.5)"/><path d="M 110.28571428571429 290.2857142857143v 6.428571428571429h 6.428571428571429v -6.428571428571429z" transform="rotate(0,113.5,293.5)"/><path d="M 119.28571428571429 2.2857142857142856v 6.428571428571429h 6.428571428571429v -6.428571428571429z" transform="rotate(0,122.5,5.5)"/><path d="M 119.28571428571429 11.285714285714286v 6.428571428571429h 6.428571428571429v -6.428571428571429z" transform="rotate(0,122.5,14.5)"/><path d="M 119.28571428571429 20.285714285714285v 6.428571428571429h 6.428571428571429v -6.428571428571429z" transform="rotate(0,122.5,23.5)"/><path d="M 119.28571428571429 47.285714285714285v 6.428571428571429h 6.428571428571429v -6.428571428571429z" transform="rotate(0,122.5,50.5)"/><path d="M 119.28571428571429 74.28571428571429v 6.428571428571429h 6.428571428571429v -6.428571428571429z" transform="rotate(0,122.5,77.5)"/><path d="M 119.28571428571429 83.28571428571429v 6.428571428571429h 6.428571428571429v -6.428571428571429z" transform="rotate(0,122.5,86.5)"/><path d="M 119.28571428571429 200.28571428571428v 6.428571428571429h 6.428571428571429v -6.428571428571429z" transform="rotate(0,122.5,203.5)"/><path d="M 119.28571428571429 218.28571428571428v 6.428571428571429h 6.428571428571429v -6.428571428571429z" transform="rotate(0,122.5,221.5)"/><path d="M 119.28571428571429 227.28571428571428v 6.428571428571429h 6.428571428571429v -6.428571428571429z" transform="rotate(0,122.5,230.5)"/><path d="M 119.28571428571429 236.28571428571428v 6.428571428571429h 6.428571428571429v -6.428571428571429z" transform="rotate(0,122.5,239.5)"/><path d="M 119.28571428571429 245.28571428571428v 6.428571428571429h 6.428571428571429v -6.428571428571429z" transform="rotate(0,122.5,248.5)"/><path d="M 119.28571428571429 281.2857142857143v 6.428571428571429h 6.428571428571429v -6.428571428571429z" transform="rotate(0,122.5,284.5)"/><path d="M 119.28571428571429 290.2857142857143v 6.428571428571429h 6.428571428571429v -6.428571428571429z" transform="rotate(0,122.5,293.5)"/><path d="M 128.28571428571428 11.285714285714286v 6.428571428571429h 6.428571428571429v -6.428571428571429z" transform="rotate(0,131.5,14.5)"/><path d="M 128.28571428571428 20.285714285714285v 6.428571428571429h 6.428571428571429v -6.428571428571429z" transform="rotate(0,131.5,23.5)"/><path d="M 128.28571428571428 29.285714285714285v 6.428571428571429h 6.428571428571429v -6.428571428571429z" transform="rotate(0,131.5,32.5)"/><path d="M 128.28571428571428 38.285714285714285v 6.428571428571429h 6.428571428571429v -6.428571428571429z" transform="rotate(0,131.5,41.5)"/><path d="M 128.28571428571428 56.285714285714285v 6.428571428571429h 6.428571428571429v -6.428571428571429z" transform="rotate(0,131.5,59.5)"/><path d="M 128.28571428571428 83.28571428571429v 6.428571428571429h 6.428571428571429v -6.428571428571429z" transform="rotate(0,131.5,86.5)"/><path d="M 128.28571428571428 101.28571428571429v 6.428571428571429h 6.428571428571429v -6.428571428571429z" transform="rotate(0,131.5,104.5)"/><path d="M 128.28571428571428 191.28571428571428v 6.428571428571429h 6.428571428571429v -6.428571428571429z" transform="rotate(0,131.5,194.5)"/><path d="M 128.28571428571428 227.28571428571428v 6.428571428571429h 6.428571428571429v -6.428571428571429z" transform="rotate(0,131.5,230.5)"/><path d="M 128.28571428571428 245.28571428571428v 6.428571428571429h 6.428571428571429v -6.428571428571429z" transform="rotate(0,131.5,248.5)"/><path d="M 128.28571428571428 263.2857142857143v 6.428571428571429h 6.428571428571429v -6.428571428571429z" transform="rotate(0,131.5,266.5)"/><path d="M 128.28571428571428 272.2857142857143v 6.428571428571429h 6.428571428571429v -6.428571428571429z" transform="rotate(0,131.5,275.5)"/><path d="M 128.28571428571428 281.2857142857143v 6.428571428571429h 6.428571428571429v -6.428571428571429z" transform="rotate(0,131.5,284.5)"/><path d="M 128.28571428571428 290.2857142857143v 6.428571428571429h 6.428571428571429v -6.428571428571429z" transform="rotate(0,131.5,293.5)"/><path d="M 137.28571428571428 2.2857142857142856v 6.428571428571429h 6.428571428571429v -6.428571428571429z" transform="rotate(0,140.5,5.5)"/><path d="M 137.28571428571428 65.28571428571429v 6.428571428571429h 6.428571428571429v -6.428571428571429z" transform="rotate(0,140.5,68.5)"/><path d="M 137.28571428571428 74.28571428571429v 6.428571428571429h 6.428571428571429v -6.428571428571429z" transform="rotate(0,140.5,77.5)"/><path d="M 137.28571428571428 83.28571428571429v 6.428571428571429h 6.428571428571429v -6.428571428571429z" transform="rotate(0,140.5,86.5)"/><path d="M 137.28571428571428 92.28571428571429v 6.428571428571429h 6.428571428571429v -6.428571428571429z" transform="rotate(0,140.5,95.5)"/><path d="M 137.28571428571428 191.28571428571428v 6.428571428571429h 6.428571428571429v -6.428571428571429z" transform="rotate(0,140.5,194.5)"/><path d="M 137.28571428571428 200.28571428571428v 6.428571428571429h 6.428571428571429v -6.428571428571429z" transform="rotate(0,140.5,203.5)"/><path d="M 137.28571428571428 209.28571428571428v 6.428571428571429h 6.428571428571429v -6.428571428571429z" transform="rotate(0,140.5,212.5)"/><path d="M 137.28571428571428 218.28571428571428v 6.428571428571429h 6.428571428571429v -6.428571428571429z" transform="rotate(0,140.5,221.5)"/><path d="M 137.28571428571428 236.28571428571428v 6.428571428571429h 6.428571428571429v -6.428571428571429z" transform="rotate(0,140.5,239.5)"/><path d="M 137.28571428571428 245.28571428571428v 6.428571428571429h 6.428571428571429v -6.428571428571429z" transform="rotate(0,140.5,248.5)"/><path d="M 146.28571428571428 2.2857142857142856v 6.428571428571429h 6.428571428571429v -6.428571428571429z" transform="rotate(0,149.5,5.5)"/><path d="M 146.28571428571428 20.285714285714285v 6.428571428571429h 6.428571428571429v -6.428571428571429z" transform="rotate(0,149.5,23.5)"/><path d="M 146.28571428571428 29.285714285714285v 6.428571428571429h 6.428571428571429v -6.428571428571429z" transform="rotate(0,149.5,32.5)"/><path d="M 146.28571428571428 38.285714285714285v 6.428571428571429h 6.428571428571429v -6.428571428571429z" transform="rotate(0,149.5,41.5)"/><path d="M 146.28571428571428 56.285714285714285v 6.428571428571429h 6.428571428571429v -6.428571428571429z" transform="rotate(0,149.5,59.5)"/><path d="M 146.28571428571428 74.28571428571429v 6.428571428571429h 6.428571428571429v -6.428571428571429z" transform="rotate(0,149.5,77.5)"/><path d="M 146.28571428571428 101.28571428571429v 6.428571428571429h 6.428571428571429v -6.428571428571429z" transform="rotate(0,149.5,104.5)"/><path d="M 146.28571428571428 191.28571428571428v 6.428571428571429h 6.428571428571429v -6.428571428571429z" transform="rotate(0,149.5,194.5)"/><path d="M 146.28571428571428 200.28571428571428v 6.428571428571429h 6.428571428571429v -6.428571428571429z" transform="rotate(0,149.5,203.5)"/><path d="M 146.28571428571428 209.28571428571428v 6.428571428571429h 6.428571428571429v -6.428571428571429z" transform="rotate(0,149.5,212.5)"/><path d="M 146.28571428571428 227.28571428571428v 6.428571428571429h 6.428571428571429v -6.428571428571429z" transform="rotate(0,149.5,230.5)"/><path d="M 146.28571428571428 236.28571428571428v 6.428571428571429h 6.428571428571429v -6.428571428571429z" transform="rotate(0,149.5,239.5)"/><path d="M 146.28571428571428 263.2857142857143v 6.428571428571429h 6.428571428571429v -6.428571428571429z" transform="rotate(0,149.5,266.5)"/><path d="M 146.28571428571428 281.2857142857143v 6.428571428571429h 6.428571428571429v -6.428571428571429z" transform="rotate(0,149.5,284.5)"/><path d="M 155.28571428571428 2.2857142857142856v 6.428571428571429h 6.428571428571429v -6.428571428571429z" transform="rotate(0,158.5,5.5)"/><path d="M 155.28571428571428 20.285714285714285v 6.428571428571429h 6.428571428571429v -6.428571428571429z" transform="rotate(0,158.5,23.5)"/><path d="M 155.28571428571428 38.285714285714285v 6.428571428571429h 6.428571428571429v -6.428571428571429z" transform="rotate(0,158.5,41.5)"/><path d="M 155.28571428571428 74.28571428571429v 6.428571428571429h 6.428571428571429v -6.428571428571429z" transform="rotate(0,158.5,77.5)"/><path d="M 155.28571428571428 92.28571428571429v 6.428571428571429h 6.428571428571429v -6.428571428571429z" transform="rotate(0,158.5,95.5)"/><path d="M 155.28571428571428 101.28571428571429v 6.428571428571429h 6.428571428571429v -6.428571428571429z" transform="rotate(0,158.5,104.5)"/><path d="M 155.28571428571428 191.28571428571428v 6.428571428571429h 6.428571428571429v -6.428571428571429z" transform="rotate(0,158.5,194.5)"/><path d="M 155.28571428571428 227.28571428571428v 6.428571428571429h 6.428571428571429v -6.428571428571429z" transform="rotate(0,158.5,230.5)"/><path d="M 155.28571428571428 245.28571428571428v 6.428571428571429h 6.428571428571429v -6.428571428571429z" transform="rotate(0,158.5,248.5)"/><path d="M 155.28571428571428 263.2857142857143v 6.428571428571429h 6.428571428571429v -6.428571428571429z" transform="rotate(0,158.5,266.5)"/><path d="M 155.28571428571428 272.2857142857143v 6.428571428571429h 6.428571428571429v -6.428571428571429z" transform="rotate(0,158.5,275.5)"/><path d="M 155.28571428571428 290.2857142857143v 6.428571428571429h 6.428571428571429v -6.428571428571429z" transform="rotate(0,158.5,293.5)"/><path d="M 164.28571428571428 29.285714285714285v 6.428571428571429h 6.428571428571429v -6.428571428571429z" transform="rotate(0,167.5,32.5)"/><path d="M 164.28571428571428 47.285714285714285v 6.428571428571429h 6.428571428571429v -6.428571428571429z" transform="rotate(0,167.5,50.5)"/><path d="M 164.28571428571428 56.285714285714285v 6.428571428571429h 6.428571428571429v -6.428571428571429z" transform="rotate(0,167.5,59.5)"/><path d="M 164.28571428571428 83.28571428571429v 6.428571428571429h 6.428571428571429v -6.428571428571429z" transform="rotate(0,167.5,86.5)"/><path d="M 164.28571428571428 92.28571428571429v 6.428571428571429h 6.428571428571429v -6.428571428571429z" transform="rotate(0,167.5,95.5)"/><path d="M 164.28571428571428 191.28571428571428v 6.428571428571429h 6.428571428571429v -6.428571428571429z" transform="rotate(0,167.5,194.5)"/><path d="M 164.28571428571428 200.28571428571428v 6.428571428571429h 6.428571428571429v -6.428571428571429z" transform="rotate(0,167.5,203.5)"/><path d="M 164.28571428571428 227.28571428571428v 6.428571428571429h 6.428571428571429v -6.428571428571429z" transform="rotate(0,167.5,230.5)"/><path d="M 164.28571428571428 245.28571428571428v 6.428571428571429h 6.428571428571429v -6.428571428571429z" transform="rotate(0,167.5,248.5)"/><path d="M 164.28571428571428 254.28571428571428v 6.428571428571429h 6.428571428571429v -6.428571428571429z" transform="rotate(0,167.5,257.5)"/><path d="M 164.28571428571428 272.2857142857143v 6.428571428571429h 6.428571428571429v -6.428571428571429z" transform="rotate(0,167.5,275.5)"/><path d="M 164.28571428571428 281.2857142857143v 6.428571428571429h 6.428571428571429v -6.428571428571429z" transform="rotate(0,167.5,284.5)"/><path d="M 164.28571428571428 290.2857142857143v 6.428571428571429h 6.428571428571429v -6.428571428571429z" transform="rotate(0,167.5,293.5)"/><path d="M 173.28571428571428 11.285714285714286v 6.428571428571429h 6.428571428571429v -6.428571428571429z" transform="rotate(0,176.5,14.5)"/><path d="M 173.28571428571428 20.285714285714285v 6.428571428571429h 6.428571428571429v -6.428571428571429z" transform="rotate(0,176.5,23.5)"/><path d="M 173.28571428571428 38.285714285714285v 6.428571428571429h 6.428571428571429v -6.428571428571429z" transform="rotate(0,176.5,41.5)"/><path d="M 173.28571428571428 47.285714285714285v 6.428571428571429h 6.428571428571429v -6.428571428571429z" transform="rotate(0,176.5,50.5)"/><path d="M 173.28571428571428 65.28571428571429v 6.428571428571429h 6.428571428571429v -6.428571428571429z" transform="rotate(0,176.5,68.5)"/><path d="M 173.28571428571428 74.28571428571429v 6.428571428571429h 6.428571428571429v -6.428571428571429z" transform="rotate(0,176.5,77.5)"/><path d="M 173.28571428571428 92.28571428571429v 6.428571428571429h 6.428571428571429v -6.428571428571429z" transform="rotate(0,176.5,95.5)"/><path d="M 173.28571428571428 191.28571428571428v 6.428571428571429h 6.428571428571429v -6.428571428571429z" transform="rotate(0,176.5,194.5)"/><path d="M 173.28571428571428 227.28571428571428v 6.428571428571429h 6.428571428571429v -6.428571428571429z" transform="rotate(0,176.5,230.5)"/><path d="M 173.28571428571428 236.28571428571428v 6.428571428571429h 6.428571428571429v -6.428571428571429z" transform="rotate(0,176.5,239.5)"/><path d="M 173.28571428571428 254.28571428571428v 6.428571428571429h 6.428571428571429v -6.428571428571429z" transform="rotate(0,176.5,257.5)"/><path d="M 182.28571428571428 11.285714285714286v 6.428571428571429h 6.428571428571429v -6.428571428571429z" transform="rotate(0,185.5,14.5)"/><path d="M 182.28571428571428 56.285714285714285v 6.428571428571429h 6.428571428571429v -6.428571428571429z" transform="rotate(0,185.5,59.5)"/><path d="M 182.28571428571428 65.28571428571429v 6.428571428571429h 6.428571428571429v -6.428571428571429z" transform="rotate(0,185.5,68.5)"/><path d="M 182.28571428571428 83.28571428571429v 6.428571428571429h 6.428571428571429v -6.428571428571429z" transform="rotate(0,185.5,86.5)"/><path d="M 182.28571428571428 92.28571428571429v 6.428571428571429h 6.428571428571429v -6.428571428571429z" transform="rotate(0,185.5,95.5)"/><path d="M 182.28571428571428 191.28571428571428v 6.428571428571429h 6.428571428571429v -6.428571428571429z" transform="rotate(0,185.5,194.5)"/><path d="M 182.28571428571428 200.28571428571428v 6.428571428571429h 6.428571428571429v -6.428571428571429z" transform="rotate(0,185.5,203.5)"/><path d="M 182.28571428571428 227.28571428571428v 6.428571428571429h 6.428571428571429v -6.428571428571429z" transform="rotate(0,185.5,230.5)"/><path d="M 182.28571428571428 263.2857142857143v 6.428571428571429h 6.428571428571429v -6.428571428571429z" transform="rotate(0,185.5,266.5)"/><path d="M 182.28571428571428 281.2857142857143v 6.428571428571429h 6.428571428571429v -6.428571428571429z" transform="rotate(0,185.5,284.5)"/><path d="M 182.28571428571428 290.2857142857143v 6.428571428571429h 6.428571428571429v -6.428571428571429z" transform="rotate(0,185.5,293.5)"/><path d="M 191.28571428571428 20.285714285714285v 6.428571428571429h 6.428571428571429v -6.428571428571429z" transform="rotate(0,194.5,23.5)"/><path d="M 191.28571428571428 47.285714285714285v 6.428571428571429h 6.428571428571429v -6.428571428571429z" transform="rotate(0,194.5,50.5)"/><path d="M 191.28571428571428 92.28571428571429v 6.428571428571429h 6.428571428571429v -6.428571428571429z" transform="rotate(0,194.5,95.5)"/><path d="M 191.28571428571428 137.28571428571428v 6.428571428571429h 6.428571428571429v -6.428571428571429z" transform="rotate(0,194.5,140.5)"/><path d="M 191.28571428571428 146.28571428571428v 6.428571428571429h 6.428571428571429v -6.428571428571429z" transform="rotate(0,194.5,149.5)"/><path d="M 191.28571428571428 164.28571428571428v 6.428571428571429h 6.428571428571429v -6.428571428571429z" transform="rotate(0,194.5,167.5)"/><path d="M 191.28571428571428 182.28571428571428v 6.428571428571429h 6.428571428571429v -6.428571428571429z" transform="rotate(0,194.5,185.5)"/><path d="M 191.28571428571428 209.28571428571428v 6.428571428571429h 6.428571428571429v -6.428571428571429z" transform="rotate(0,194.5,212.5)"/><path d="M 191.28571428571428 227.28571428571428v 6.428571428571429h 6.428571428571429v -6.428571428571429z" transform="rotate(0,194.5,230.5)"/><path d="M 191.28571428571428 263.2857142857143v 6.428571428571429h 6.428571428571429v -6.428571428571429z" transform="rotate(0,194.5,266.5)"/><path d="M 191.28571428571428 281.2857142857143v 6.428571428571429h 6.428571428571429v -6.428571428571429z" transform="rotate(0,194.5,284.5)"/><path d="M 191.28571428571428 290.2857142857143v 6.428571428571429h 6.428571428571429v -6.428571428571429z" transform="rotate(0,194.5,293.5)"/><path d="M 200.28571428571428 2.2857142857142856v 6.428571428571429h 6.428571428571429v -6.428571428571429z" transform="rotate(0,203.5,5.5)"/><path d="M 200.28571428571428 20.285714285714285v 6.428571428571429h 6.428571428571429v -6.428571428571429z" transform="rotate(0,203.5,23.5)"/><path d="M 200.28571428571428 56.285714285714285v 6.428571428571429h 6.428571428571429v -6.428571428571429z" transform="rotate(0,203.5,59.5)"/><path d="M 200.28571428571428 74.28571428571429v 6.428571428571429h 6.428571428571429v -6.428571428571429z" transform="rotate(0,203.5,77.5)"/><path d="M 200.28571428571428 92.28571428571429v 6.428571428571429h 6.428571428571429v -6.428571428571429z" transform="rotate(0,203.5,95.5)"/><path d="M 200.28571428571428 110.28571428571429v 6.428571428571429h 6.428571428571429v -6.428571428571429z" transform="rotate(0,203.5,113.5)"/><path d="M 200.28571428571428 119.28571428571429v 6.428571428571429h 6.428571428571429v -6.428571428571429z" transform="rotate(0,203.5,122.5)"/><path d="M 200.28571428571428 128.28571428571428v 6.428571428571429h 6.428571428571429v -6.428571428571429z" transform="rotate(0,203.5,131.5)"/><path d="M 200.28571428571428 155.28571428571428v 6.428571428571429h 6.428571428571429v -6.428571428571429z" transform="rotate(0,203.5,158.5)"/><path d="M 200.28571428571428 173.28571428571428v 6.428571428571429h 6.428571428571429v -6.428571428571429z" transform="rotate(0,203.5,176.5)"/><path d="M 200.28571428571428 182.28571428571428v 6.428571428571429h 6.428571428571429v -6.428571428571429z" transform="rotate(0,203.5,185.5)"/><path d="M 200.28571428571428 200.28571428571428v 6.428571428571429h 6.428571428571429v -6.428571428571429z" transform="rotate(0,203.5,203.5)"/><path d="M 200.28571428571428 236.28571428571428v 6.428571428571429h 6.428571428571429v -6.428571428571429z" transform="rotate(0,203.5,239.5)"/><path d="M 200.28571428571428 281.2857142857143v 6.428571428571429h 6.428571428571429v -6.428571428571429z" transform="rotate(0,203.5,284.5)"/><path d="M 200.28571428571428 290.2857142857143v 6.428571428571429h 6.428571428571429v -6.428571428571429z" transform="rotate(0,203.5,293.5)"/><path d="M 209.28571428571428 11.285714285714286v 6.428571428571429h 6.428571428571429v -6.428571428571429z" transform="rotate(0,212.5,14.5)"/><path d="M 209.28571428571428 38.285714285714285v 6.428571428571429h 6.428571428571429v -6.428571428571429z" transform="rotate(0,212.5,41.5)"/><path d="M 209.28571428571428 83.28571428571429v 6.428571428571429h 6.428571428571429v -6.428571428571429z" transform="rotate(0,212.5,86.5)"/><path d="M 209.28571428571428 101.28571428571429v 6.428571428571429h 6.428571428571429v -6.428571428571429z" transform="rotate(0,212.5,104.5)"/><path d="M 209.28571428571428 128.28571428571428v 6.428571428571429h 6.428571428571429v -6.428571428571429z" transform="rotate(0,212.5,131.5)"/><path d="M 209.28571428571428 146.28571428571428v 6.428571428571429h 6.428571428571429v -6.428571428571429z" transform="rotate(0,212.5,149.5)"/><path d="M 209.28571428571428 155.28571428571428v 6.428571428571429h 6.428571428571429v -6.428571428571429z" transform="rotate(0,212.5,158.5)"/><path d="M 209.28571428571428 164.28571428571428v 6.428571428571429h 6.428571428571429v -6.428571428571429z" transform="rotate(0,212.5,167.5)"/><path d="M 209.28571428571428 182.28571428571428v 6.428571428571429h 6.428571428571429v -6.428571428571429z" transform="rotate(0,212.5,185.5)"/><path d="M 209.28571428571428 191.28571428571428v 6.428571428571429h 6.428571428571429v -6.428571428571429z" transform="rotate(0,212.5,194.5)"/><path d="M 209.28571428571428 209.28571428571428v 6.428571428571429h 6.428571428571429v -6.428571428571429z" transform="rotate(0,212.5,212.5)"/><path d="M 209.28571428571428 227.28571428571428v 6.428571428571429h 6.428571428571429v -6.428571428571429z" transform="rotate(0,212.5,230.5)"/><path d="M 209.28571428571428 254.28571428571428v 6.428571428571429h 6.428571428571429v -6.428571428571429z" transform="rotate(0,212.5,257.5)"/><path d="M 209.28571428571428 263.2857142857143v 6.428571428571429h 6.428571428571429v -6.428571428571429z" transform="rotate(0,212.5,266.5)"/><path d="M 209.28571428571428 281.2857142857143v 6.428571428571429h 6.428571428571429v -6.428571428571429z" transform="rotate(0,212.5,284.5)"/><path d="M 209.28571428571428 290.2857142857143v 6.428571428571429h 6.428571428571429v -6.428571428571429z" transform="rotate(0,212.5,293.5)"/><path d="M 218.28571428571428 2.2857142857142856v 6.428571428571429h 6.428571428571429v -6.428571428571429z" transform="rotate(0,221.5,5.5)"/><path d="M 218.28571428571428 38.285714285714285v 6.428571428571429h 6.428571428571429v -6.428571428571429z" transform="rotate(0,221.5,41.5)"/><path d="M 218.28571428571428 47.285714285714285v 6.428571428571429h 6.428571428571429v -6.428571428571429z" transform="rotate(0,221.5,50.5)"/><path d="M 218.28571428571428 56.285714285714285v 6.428571428571429h 6.428571428571429v -6.428571428571429z" transform="rotate(0,221.5,59.5)"/><path d="M 218.28571428571428 65.28571428571429v 6.428571428571429h 6.428571428571429v -6.428571428571429z" transform="rotate(0,221.5,68.5)"/><path d="M 218.28571428571428 83.28571428571429v 6.428571428571429h 6.428571428571429v -6.428571428571429z" transform="rotate(0,221.5,86.5)"/><path d="M 218.28571428571428 119.28571428571429v 6.428571428571429h 6.428571428571429v -6.428571428571429z" transform="rotate(0,221.5,122.5)"/><path d="M 218.28571428571428 137.28571428571428v 6.428571428571429h 6.428571428571429v -6.428571428571429z" transform="rotate(0,221.5,140.5)"/><path d="M 218.28571428571428 164.28571428571428v 6.428571428571429h 6.428571428571429v -6.428571428571429z" transform="rotate(0,221.5,167.5)"/><path d="M 218.28571428571428 173.28571428571428v 6.428571428571429h 6.428571428571429v -6.428571428571429z" transform="rotate(0,221.5,176.5)"/><path d="M 218.28571428571428 218.28571428571428v 6.428571428571429h 6.428571428571429v -6.428571428571429z" transform="rotate(0,221.5,221.5)"/><path d="M 218.28571428571428 227.28571428571428v 6.428571428571429h 6.428571428571429v -6.428571428571429z" transform="rotate(0,221.5,230.5)"/><path d="M 218.28571428571428 236.28571428571428v 6.428571428571429h 6.428571428571429v -6.428571428571429z" transform="rotate(0,221.5,239.5)"/><path d="M 218.28571428571428 245.28571428571428v 6.428571428571429h 6.428571428571429v -6.428571428571429z" transform="rotate(0,221.5,248.5)"/><path d="M 218.28571428571428 254.28571428571428v 6.428571428571429h 6.428571428571429v -6.428571428571429z" transform="rotate(0,221.5,257.5)"/><path d="M 218.28571428571428 281.2857142857143v 6.428571428571429h 6.428571428571429v -6.428571428571429z" transform="rotate(0,221.5,284.5)"/><path d="M 227.28571428571428 74.28571428571429v 6.428571428571429h 6.428571428571429v -6.428571428571429z" transform="rotate(0,230.5,77.5)"/><path d="M 227.28571428571428 92.28571428571429v 6.428571428571429h 6.428571428571429v -6.428571428571429z" transform="rotate(0,230.5,95.5)"/><path d="M 227.28571428571428 101.28571428571429v 6.428571428571429h 6.428571428571429v -6.428571428571429z" transform="rotate(0,230.5,104.5)"/><path d="M 227.28571428571428 146.28571428571428v 6.428571428571429h 6.428571428571429v -6.428571428571429z" transform="rotate(0,230.5,149.5)"/><path d="M 227.28571428571428 155.28571428571428v 6.428571428571429h 6.428571428571429v -6.428571428571429z" transform="rotate(0,230.5,158.5)"/><path d="M 227.28571428571428 164.28571428571428v 6.428571428571429h 6.428571428571429v -6.428571428571429z" transform="rotate(0,230.5,167.5)"/><path d="M 227.28571428571428 173.28571428571428v 6.428571428571429h 6.428571428571429v -6.428571428571429z" transform="rotate(0,230.5,176.5)"/><path d="M 227.28571428571428 182.28571428571428v 6.428571428571429h 6.428571428571429v -6.428571428571429z" transform="rotate(0,230.5,185.5)"/><path d="M 227.28571428571428 200.28571428571428v 6.428571428571429h 6.428571428571429v -6.428571428571429z" transform="rotate(0,230.5,203.5)"/><path d="M 227.28571428571428 209.28571428571428v 6.428571428571429h 6.428571428571429v -6.428571428571429z" transform="rotate(0,230.5,212.5)"/><path d="M 227.28571428571428 218.28571428571428v 6.428571428571429h 6.428571428571429v -6.428571428571429z" transform="rotate(0,230.5,221.5)"/><path d="M 227.28571428571428 254.28571428571428v 6.428571428571429h 6.428571428571429v -6.428571428571429z" transform="rotate(0,230.5,257.5)"/><path d="M 227.28571428571428 272.2857142857143v 6.428571428571429h 6.428571428571429v -6.428571428571429z" transform="rotate(0,230.5,275.5)"/><path d="M 227.28571428571428 290.2857142857143v 6.428571428571429h 6.428571428571429v -6.428571428571429z" transform="rotate(0,230.5,293.5)"/><path d="M 236.28571428571428 92.28571428571429v 6.428571428571429h 6.428571428571429v -6.428571428571429z" transform="rotate(0,239.5,95.5)"/><path d="M 236.28571428571428 119.28571428571429v 6.428571428571429h 6.428571428571429v -6.428571428571429z" transform="rotate(0,239.5,122.5)"/><path d="M 236.28571428571428 137.28571428571428v 6.428571428571429h 6.428571428571429v -6.428571428571429z" transform="rotate(0,239.5,140.5)"/><path d="M 236.28571428571428 173.28571428571428v 6.428571428571429h 6.428571428571429v -6.428571428571429z" transform="rotate(0,239.5,176.5)"/><path d="M 236.28571428571428 191.28571428571428v 6.428571428571429h 6.428571428571429v -6.428571428571429z" transform="rotate(0,239.5,194.5)"/><path d="M 236.28571428571428 209.28571428571428v 6.428571428571429h 6.428571428571429v -6.428571428571429z" transform="rotate(0,239.5,212.5)"/><path d="M 236.28571428571428 218.28571428571428v 6.428571428571429h 6.428571428571429v -6.428571428571429z" transform="rotate(0,239.5,221.5)"/><path d="M 236.28571428571428 236.28571428571428v 6.428571428571429h 6.428571428571429v -6.428571428571429z" transform="rotate(0,239.5,239.5)"/><path d="M 236.28571428571428 254.28571428571428v 6.428571428571429h 6.428571428571429v -6.428571428571429z" transform="rotate(0,239.5,257.5)"/><path d="M 236.28571428571428 263.2857142857143v 6.428571428571429h 6.428571428571429v -6.428571428571429z" transform="rotate(0,239.5,266.5)"/><path d="M 236.28571428571428 281.2857142857143v 6.428571428571429h 6.428571428571429v -6.428571428571429z" transform="rotate(0,239.5,284.5)"/><path d="M 236.28571428571428 290.2857142857143v 6.428571428571429h 6.428571428571429v -6.428571428571429z" transform="rotate(0,239.5,293.5)"/><path d="M 245.28571428571428 74.28571428571429v 6.428571428571429h 6.428571428571429v -6.428571428571429z" transform="rotate(0,248.5,77.5)"/><path d="M 245.28571428571428 92.28571428571429v 6.428571428571429h 6.428571428571429v -6.428571428571429z" transform="rotate(0,248.5,95.5)"/><path d="M 245.28571428571428 101.28571428571429v 6.428571428571429h 6.428571428571429v -6.428571428571429z" transform="rotate(0,248.5,104.5)"/><path d="M 245.28571428571428 119.28571428571429v 6.428571428571429h 6.428571428571429v -6.428571428571429z" transform="rotate(0,248.5,122.5)"/><path d="M 245.28571428571428 128.28571428571428v 6.428571428571429h 6.428571428571429v -6.428571428571429z" transform="rotate(0,248.5,131.5)"/><path d="M 245.28571428571428 137.28571428571428v 6.428571428571429h 6.428571428571429v -6.428571428571429z" transform="rotate(0,248.5,140.5)"/><path d="M 245.28571428571428 173.28571428571428v 6.428571428571429h 6.428571428571429v -6.428571428571429z" transform="rotate(0,248.5,176.5)"/><path d="M 245.28571428571428 218.28571428571428v 6.428571428571429h 6.428571428571429v -6.428571428571429z" transform="rotate(0,248.5,221.5)"/><path d="M 245.28571428571428 254.28571428571428v 6.428571428571429h 6.428571428571429v -6.428571428571429z" transform="rotate(0,248.5,257.5)"/><path d="M 245.28571428571428 290.2857142857143v 6.428571428571429h 6.428571428571429v -6.428571428571429z" transform="rotate(0,248.5,293.5)"/><path d="M 254.28571428571428 74.28571428571429v 6.428571428571429h 6.428571428571429v -6.428571428571429z" transform="rotate(0,257.5,77.5)"/><path d="M 254.28571428571428 110.28571428571429v 6.428571428571429h 6.428571428571429v -6.428571428571429z" transform="rotate(0,257.5,113.5)"/><path d="M 254.28571428571428 146.28571428571428v 6.428571428571429h 6.428571428571429v -6.428571428571429z" transform="rotate(0,257.5,149.5)"/><path d="M 254.28571428571428 155.28571428571428v 6.428571428571429h 6.428571428571429v -6.428571428571429z" transform="rotate(0,257.5,158.5)"/><path d="M 254.28571428571428 164.28571428571428v 6.428571428571429h 6.428571428571429v -6.428571428571429z" transform="rotate(0,257.5,167.5)"/><path d="M 254.28571428571428 182.28571428571428v 6.428571428571429h 6.428571428571429v -6.428571428571429z" transform="rotate(0,257.5,185.5)"/><path d="M 254.28571428571428 218.28571428571428v 6.428571428571429h 6.428571428571429v -6.428571428571429z" transform="rotate(0,257.5,221.5)"/><path d="M 254.28571428571428 227.28571428571428v 6.428571428571429h 6.428571428571429v -6.428571428571429z" transform="rotate(0,257.5,230.5)"/><path d="M 254.28571428571428 236.28571428571428v 6.428571428571429h 6.428571428571429v -6.428571428571429z" transform="rotate(0,257.5,239.5)"/><path d="M 254.28571428571428 245.28571428571428v 6.428571428571429h 6.428571428571429v -6.428571428571429z" transform="rotate(0,257.5,248.5)"/><path d="M 254.28571428571428 254.28571428571428v 6.428571428571429h 6.428571428571429v -6.428571428571429z" transform="rotate(0,257.5,257.5)"/><path d="M 254.28571428571428 281.2857142857143v 6.428571428571429h 6.428571428571429v -6.428571428571429z" transform="rotate(0,257.5,284.5)"/><path d="M 263.2857142857143 110.28571428571429v 6.428571428571429h 6.428571428571429v -6.428571428571429z" transform="rotate(0,266.5,113.5)"/><path d="M 263.2857142857143 146.28571428571428v 6.428571428571429h 6.428571428571429v -6.428571428571429z" transform="rotate(0,266.5,149.5)"/><path d="M 263.2857142857143 164.28571428571428v 6.428571428571429h 6.428571428571429v -6.428571428571429z" transform="rotate(0,266.5,167.5)"/><path d="M 263.2857142857143 173.28571428571428v 6.428571428571429h 6.428571428571429v -6.428571428571429z" transform="rotate(0,266.5,176.5)"/><path d="M 263.2857142857143 182.28571428571428v 6.428571428571429h 6.428571428571429v -6.428571428571429z" transform="rotate(0,266.5,185.5)"/><path d="M 263.2857142857143 209.28571428571428v 6.428571428571429h 6.428571428571429v -6.428571428571429z" transform="rotate(0,266.5,212.5)"/><path d="M 263.2857142857143 254.28571428571428v 6.428571428571429h 6.428571428571429v -6.428571428571429z" transform="rotate(0,266.5,257.5)"/><path d="M 272.2857142857143 74.28571428571429v 6.428571428571429h 6.428571428571429v -6.428571428571429z" transform="rotate(0,275.5,77.5)"/><path d="M 272.2857142857143 119.28571428571429v 6.428571428571429h 6.428571428571429v -6.428571428571429z" transform="rotate(0,275.5,122.5)"/><path d="M 272.2857142857143 128.28571428571428v 6.428571428571429h 6.428571428571429v -6.428571428571429z" transform="rotate(0,275.5,131.5)"/><path d="M 272.2857142857143 137.28571428571428v 6.428571428571429h 6.428571428571429v -6.428571428571429z" transform="rotate(0,275.5,140.5)"/><path d="M 272.2857142857143 146.28571428571428v 6.428571428571429h 6.428571428571429v -6.428571428571429z" transform="rotate(0,275.5,149.5)"/><path d="M 272.2857142857143 164.28571428571428v 6.428571428571429h 6.428571428571429v -6.428571428571429z" transform="rotate(0,275.5,167.5)"/><path d="M 272.2857142857143 191.28571428571428v 6.428571428571429h 6.428571428571429v -6.428571428571429z" transform="rotate(0,275.5,194.5)"/><path d="M 272.2857142857143 200.28571428571428v 6.428571428571429h 6.428571428571429v -6.428571428571429z" transform="rotate(0,275.5,203.5)"/><path d="M 272.2857142857143 209.28571428571428v 6.428571428571429h 6.428571428571429v -6.428571428571429z" transform="rotate(0,275.5,212.5)"/><path d="M 272.2857142857143 227.28571428571428v 6.428571428571429h 6.428571428571429v -6.428571428571429z" transform="rotate(0,275.5,230.5)"/><path d="M 272.2857142857143 245.28571428571428v 6.428571428571429h 6.428571428571429v -6.428571428571429z" transform="rotate(0,275.5,248.5)"/><path d="M 272.2857142857143 254.28571428571428v 6.428571428571429h 6.428571428571429v -6.428571428571429z" transform="rotate(0,275.5,257.5)"/><path d="M 272.2857142857143 272.2857142857143v 6.428571428571429h 6.428571428571429v -6.428571428571429z" transform="rotate(0,275.5,275.5)"/><path d="M 272.2857142857143 290.2857142857143v 6.428571428571429h 6.428571428571429v -6.428571428571429z" transform="rotate(0,275.5,293.5)"/><path d="M 281.2857142857143 83.28571428571429v 6.428571428571429h 6.428571428571429v -6.428571428571429z" transform="rotate(0,284.5,86.5)"/><path d="M 281.2857142857143 110.28571428571429v 6.428571428571429h 6.428571428571429v -6.428571428571429z" transform="rotate(0,284.5,113.5)"/><path d="M 281.2857142857143 119.28571428571429v 6.428571428571429h 6.428571428571429v -6.428571428571429z" transform="rotate(0,284.5,122.5)"/><path d="M 281.2857142857143 137.28571428571428v 6.428571428571429h 6.428571428571429v -6.428571428571429z" transform="rotate(0,284.5,140.5)"/><path d="M 281.2857142857143 146.28571428571428v 6.428571428571429h 6.428571428571429v -6.428571428571429z" transform="rotate(0,284.5,149.5)"/><path d="M 281.2857142857143 155.28571428571428v 6.428571428571429h 6.428571428571429v -6.428571428571429z" transform="rotate(0,284.5,158.5)"/><path d="M 281.2857142857143 164.28571428571428v 6.428571428571429h 6.428571428571429v -6.428571428571429z" transform="rotate(0,284.5,167.5)"/><path d="M 281.2857142857143 209.28571428571428v 6.428571428571429h 6.428571428571429v -6.428571428571429z" transform="rotate(0,284.5,212.5)"/><path d="M 281.2857142857143 218.28571428571428v 6.428571428571429h 6.428571428571429v -6.428571428571429z" transform="rotate(0,284.5,221.5)"/><path d="M 281.2857142857143 245.28571428571428v 6.428571428571429h 6.428571428571429v -6.428571428571429z" transform="rotate(0,284.5,248.5)"/><path d="M 281.2857142857143 281.2857142857143v 6.428571428571429h 6.428571428571429v -6.428571428571429z" transform="rotate(0,284.5,284.5)"/><path d="M 290.2857142857143 92.28571428571429v 6.428571428571429h 6.428571428571429v -6.428571428571429z" transform="rotate(0,293.5,95.5)"/><path d="M 290.2857142857143 101.28571428571429v 6.428571428571429h 6.428571428571429v -6.428571428571429z" transform="rotate(0,293.5,104.5)"/><path d="M 290.2857142857143 110.28571428571429v 6.428571428571429h 6.428571428571429v -6.428571428571429z" transform="rotate(0,293.5,113.5)"/><path d="M 290.2857142857143 128.28571428571428v 6.428571428571429h 6.428571428571429v -6.428571428571429z" transform="rotate(0,293.5,131.5)"/><path d="M 290.2857142857143 164.28571428571428v 6.428571428571429h 6.428571428571429v -6.428571428571429z" transform="rotate(0,293.5,167.5)"/><path d="M 290.2857142857143 218.28571428571428v 6.428571428571429h 6.428571428571429v -6.428571428571429z" transform="rotate(0,293.5,221.5)"/><path d="M 290.2857142857143 227.28571428571428v 6.428571428571429h 6.428571428571429v -6.428571428571429z" transform="rotate(0,293.5,230.5)"/><path d="M 290.2857142857143 236.28571428571428v 6.428571428571429h 6.428571428571429v -6.428571428571429z" transform="rotate(0,293.5,239.5)"/><path d="M 290.2857142857143 245.28571428571428v 6.428571428571429h 6.428571428571429v -6.428571428571429z" transform="rotate(0,293.5,248.5)"/><path d="M 290.2857142857143 254.28571428571428v 6.428571428571429h 6.428571428571429v -6.428571428571429z" transform="rotate(0,293.5,257.5)"/><path d="M 290.2857142857143 272.2857142857143v 6.428571428571429h 6.428571428571429v -6.428571428571429z" transform="rotate(0,293.5,275.5)"/><path d="M 290.2857142857143 281.2857142857143v 6.428571428571429h 6.428571428571429v -6.428571428571429z" transform="rotate(0,293.5,284.5)"/><path d="M 290.2857142857143 290.2857142857143v 6.428571428571429h 6.428571428571429v -6.428571428571429z" transform="rotate(0,293.5,293.5)"/></g><g class="corners-square-color-0-0"><path clip-rule="evenodd" d="M 1 10v 45a 9 9, 0, 0, 0, 9 9h 45a 9 9, 0, 0, 0, 9 -9v -45a 9 9, 0, 0, 0, -9 -9h -45a 9 9, 0, 0, 0, -9 9zM 14.5 10h 36a 4.5 4.5, 0, 0, 1, 4.5 4.5v 36a 4.5 4.5, 0, 0, 1, -4.5 4.5h -36a 4.5 4.5, 0, 0, 1, -4.5 -4.5v -36a 4.5 4.5, 0, 0, 1, 4.5 -4.5z" transform="rotate(0,32.5,32.5)"/></g><g class="corners-dot-color-0-0"><rect x="19" y="19" width="27" height="27" rx="6.75" ry="6.75" transform="rotate(0,32.5,32.5)"/></g><g class="corners-square-color-1-0"><path clip-rule="evenodd" d="M 235 10v 45a 9 9, 0, 0, 0, 9 9h 45a 9 9, 0, 0, 0, 9 -9v -45a 9 9, 0, 0, 0, -9 -9h -45a 9 9, 0, 0, 0, -9 9zM 248.5 10h 36a 4.5 4.5, 0, 0, 1, 4.5 4.5v 36a 4.5 4.5, 0, 0, 1, -4.5 4.5h -36a 4.5 4.5, 0, 0, 1, -4.5 -4.5v -36a 4.5 4.5, 0, 0, 1, 4.5 -4.5z" transform="rotate(90,266.5,32.5)"/></g><g class="corners-dot-color-1-0"><rect x="253" y="19" width="27" height="27" rx="6.75" ry="6.75" transform="rotate(90,266.5,32.5)"/></g><g class="corners-square-color-0-1"><path clip-rule="evenodd" d="M 1 244v 45a 9 9, 0, 0, 0, 9 9h 45a 9 9, 0, 0, 0, 9 -9v -45a 9 9, 0, 0, 0, -9 -9h -45a 9 9, 0, 0, 0, -9 9zM 14.5 244h 36a 4.5 4.5, 0, 0, 1, 4.5 4.5v 36a 4.5 4.5, 0, 0, 1, -4.5 4.5h -36a 4.5 4.5, 0, 0, 1, -4.5 -4.5v -36a 4.5 4.5, 0, 0, 1, 4.5 -4.5z" transform="rotate(-90,32.5,266.5)"/></g><g class="corners-dot-color-0-1"><rect x="19" y="253" width="27" height="27" rx="6.75" ry="6.75" transform="rotate(-90,32.5,266.5)"/></g><svg id="messengerLogotype" xmlns="http://www.w3.org/2000/svg" viewBox="0 0 50 50" x="111" y="111" width="77px" height="77px"><circle cx="25" cy="25" r="25" fill="url(#messenger-1)"/><path fill="#fff" d="M10 24.55C10 16.19 16.55 10 25 10s15 6.19 15 14.55S33.45 39.1 25 39.1c-1.518 0-2.974-.2-4.342-.577a1.197 1.197 0 0 0-.801.06l-2.977 1.314a1.2 1.2 0 0 1-1.684-1.062l-.082-2.668a1.198 1.198 0 0 0-.403-.855C11.792 32.702 10 28.923 10 24.55Zm10.399-2.735-4.406 6.99c-.423.671.401 1.427 1.033.948l4.733-3.592a.9.9 0 0 1 1.084-.004l3.505 2.629a2.25 2.25 0 0 0 3.253-.6l4.407-6.991c.422-.67-.402-1.427-1.034-.948L28.24 23.84a.9.9 0 0 1-1.084.003l-3.505-2.629a2.25 2.25 0 0 0-3.253.6Z"/><defs><radialGradient id="messenger-1" cx="0" cy="0" r="1" gradientTransform="rotate(-57.092 50.523 16.02) scale(54.4798)" gradientUnits="userSpaceOnUse"><stop stop-color="#09F"/><stop offset="0.61" stop-color="#A033FF"/><stop offset="0.935" stop-color="#FF5280"/><stop offset="1" stop-color="#FF7061"/></radialGradient></defs></svg></svg></g></svg></svg>